<?xml version="1.0" standalone="no"?>
<!DOCTYPE svg PUBLIC "-//W3C//DTD SVG 20010904//EN"
 "http://www.w3.org/TR/2001/REC-SVG-20010904/DTD/svg10.dtd">
<svg version="1.0" xmlns="http://www.w3.org/2000/svg"
 width="144.000000pt" height="144.000000pt" viewBox="0 0 144.000000 144.000000"
 preserveAspectRatio="xMidYMid meet">
<metadata>
Created by potrace 1.11, written by Peter Selinger 2001-2013
</metadata>
<g transform="translate(0.000000,144.000000) scale(0.100000,-0.100000)"
fill="#000000" stroke="none">
<path d="M651 1188 c1 -19 2 -19 6 -5 3 11 11 16 19 13 8 -3 14 -1 14 4 0 6
-9 10 -20 10 -14 0 -20 -6 -19 -22z"/>
<path d="M710 1200 c0 -5 7 -7 15 -4 8 4 22 0 31 -7 12 -10 18 -9 32 6 16 18
16 18 -2 4 -15 -11 -20 -11 -23 -1 -5 14 -53 17 -53 2z"/>
<path d="M575 1189 c-11 -16 -1 -19 13 -3 7 8 8 14 3 14 -5 0 -13 -5 -16 -11z"/>
<path d="M811 1184 c0 -11 3 -14 6 -6 3 7 2 16 -1 19 -3 4 -6 -2 -5 -13z"/>
<path d="M403 1173 c-10 -15 -14 -16 -21 -4 -19 27 -42 -45 -28 -84 5 -11 10
-26 12 -32 6 -21 23 -15 21 7 -1 11 -6 20 -11 20 -6 0 -5 5 1 11 8 8 17 5 32
-10 26 -26 26 -32 4 -25 -16 5 -16 4 0 -6 19 -12 47 -7 47 9 0 5 -9 13 -20 16
-11 3 -20 10 -20 15 0 5 7 6 17 3 11 -4 14 -3 9 6 -4 6 -16 9 -27 6 -11 -4
-19 -2 -19 4 0 6 5 11 11 11 5 0 7 5 4 11 -5 7 -15 3 -29 -10 l-21 -20 0 24
c0 13 2 23 5 22 15 -3 50 16 50 29 0 18 -3 18 -17 -3z"/>
<path d="M883 1175 c15 -8 35 -11 44 -8 11 4 14 3 9 -5 -4 -7 -14 -12 -22 -12
-8 0 -14 -7 -14 -15 0 -8 -5 -15 -11 -15 -6 0 -9 9 -6 19 3 12 -1 22 -10 25
-8 3 -11 1 -8 -4 8 -14 -27 -59 -45 -59 -10 0 -11 2 -2 6 19 7 14 23 -5 17
-17 -5 -17 -5 0 6 9 6 21 9 26 5 5 -3 13 0 17 6 5 8 -4 10 -30 7 -23 -3 -36 0
-36 8 0 27 -85 31 -119 5 -28 -22 -72 -17 -64 8 3 10 2 12 -4 5 -4 -7 -17 -14
-28 -16 -11 -2 -19 -8 -19 -14 1 -5 5 -24 9 -43 6 -30 5 -33 -11 -27 -15 6
-17 5 -6 -5 6 -7 12 -21 12 -31 0 -14 -8 -18 -35 -18 -21 0 -35 -5 -36 -12 -1
-7 0 -87 1 -178 2 -181 9 -213 62 -267 39 -40 118 -75 172 -75 56 0 144 41
183 85 41 46 53 107 53 262 0 72 4 126 10 130 6 3 10 11 10 16 0 6 -4 8 -9 5
-5 -4 -7 3 -4 14 6 23 27 21 -234 21 -156 0 -200 9 -130 25 l32 8 -30 7 c-16
4 -22 7 -12 8 10 0 16 5 12 10 -3 6 9 8 29 4 28 -4 35 -2 41 16 7 24 42 29 42
6 0 -9 -6 -14 -14 -11 -7 3 -13 1 -13 -4 0 -6 21 -10 46 -10 26 0 43 4 39 10
-3 5 -11 7 -19 4 -9 -3 -11 3 -8 26 2 16 9 30 14 30 5 0 6 -5 3 -11 -4 -5 3
-18 14 -28 12 -10 21 -23 21 -30 0 -15 37 -14 43 2 2 6 8 8 13 4 5 -4 2 -12
-6 -18 -13 -8 -13 -10 0 -19 23 -15 38 -12 51 11 8 17 8 20 -1 14 -21 -13 0
38 26 63 27 26 23 46 -7 37 -11 -4 -19 -2 -19 4 0 6 -10 11 -22 11 -21 0 -21
-1 5 -15z m-136 -11 c-3 -3 -12 -4 -19 -1 -8 3 -5 6 6 6 11 1 17 -2 13 -5z
m-157 -24 c0 -5 -4 -10 -9 -10 -6 0 -13 5 -16 10 -3 6 1 10 9 10 9 0 16 -4 16
-10z m127 4 c-3 -3 -12 -4 -19 -1 -8 3 -5 6 6 6 11 1 17 -2 13 -5z m-83 -15
c-4 -8 1 -9 16 -4 20 6 21 5 10 -16 -12 -22 -13 -22 -26 -4 -12 16 -11 35 2
35 3 0 2 -5 -2 -11z m246 -41 c0 -19 -2 -20 -10 -8 -13 19 -13 30 0 30 6 0 10
-10 10 -22z m-310 -260 c0 -160 9 -190 72 -228 66 -40 176 -17 211 43 7 14 14
80 17 172 5 148 5 150 28 153 l23 4 -3 -155 c-3 -154 -3 -156 -33 -198 -82
-116 -257 -109 -330 15 -24 40 -25 51 -25 189 0 140 1 147 20 147 19 0 20 -7
20 -142z m140 -30 c0 -13 -43 15 -48 31 -3 9 5 7 22 -4 14 -10 26 -22 26 -27z
m90 37 c0 -3 -12 -18 -27 -32 l-28 -25 40 6 c23 3 46 2 55 -4 12 -9 10 -11
-10 -9 -40 2 -60 0 -60 -8 0 -5 16 -9 36 -10 35 -2 52 -9 43 -17 -2 -2 -25 -1
-51 3 -27 5 -48 6 -48 3 0 -3 14 -18 32 -34 17 -15 29 -31 25 -34 -3 -4 -23
11 -44 33 l-38 40 -38 -40 c-21 -22 -41 -36 -45 -32 -4 4 9 20 28 37 l35 30
-52 -4 c-29 -3 -53 -1 -53 3 0 5 10 10 23 11 80 6 84 7 67 18 -8 5 -32 10 -52
10 -21 0 -38 4 -38 9 0 7 33 7 100 -2 16 -3 37 6 60 25 36 29 40 32 40 23z"/>
<path d="M445 1170 c-17 -28 21 -81 57 -79 7 0 3 4 -9 9 -14 6 -23 18 -23 30
0 13 -4 19 -11 14 -8 -4 -9 0 -4 15 7 21 1 29 -10 11z"/>
<path d="M520 1166 c0 -8 4 -17 9 -20 5 -4 7 3 4 14 -6 23 -13 26 -13 6z"/>
<path d="M1000 1159 c-18 -33 5 -133 28 -124 10 4 28 8 42 9 18 1 26 7 28 25
5 30 -12 41 -54 35 -27 -3 -32 0 -36 21 -3 13 0 29 5 34 6 6 8 13 5 17 -4 3
-12 -4 -18 -17z m81 -93 c-5 -6 -22 -13 -36 -14 -20 -1 -26 2 -23 16 2 11 11
16 27 14 17 -3 21 0 15 10 -6 10 -4 10 9 -1 11 -9 14 -18 8 -25z"/>
<path d="M1090 1167 c0 -12 -4 -15 -12 -11 -7 4 -2 -7 11 -24 26 -37 31 -40
24 -12 -3 11 -10 20 -17 20 -8 0 -7 3 1 8 8 5 9 13 3 22 -8 13 -10 12 -10 -3z"/>
<path d="M1045 1130 c-3 -5 -1 -10 4 -10 6 0 11 5 11 10 0 6 -2 10 -4 10 -3 0
-8 -4 -11 -10z"/>
<path d="M303 1088 c-17 -23 -25 -44 -9 -24 9 11 22 23 28 28 9 5 9 8 2 8 -6
0 -16 -6 -21 -12z"/>
<path d="M698 1063 c17 -2 47 -2 65 0 17 2 3 4 -33 4 -36 0 -50 -2 -32 -4z"/>
<path d="M482 1053 c-7 -2 -17 -14 -23 -26 -11 -21 -10 -20 15 2 14 14 26 26
26 28 0 3 0 3 -18 -4z"/>
<path d="M981 1043 c7 -12 15 -20 18 -17 3 2 -3 12 -13 22 -17 16 -18 16 -5
-5z"/>
<path d="M1160 1051 c0 -6 4 -13 10 -16 6 -3 7 1 4 9 -7 18 -14 21 -14 7z"/>
<path d="M320 1015 c0 -9 -10 -20 -22 -25 -20 -8 -11 -15 14 -11 12 2 21 -47
14 -82 -3 -17 -9 -48 -12 -67 l-6 -35 41 1 c34 2 41 -1 41 -16 0 -11 -4 -22
-10 -25 -5 -3 -10 -11 -10 -17 0 -6 3 -8 7 -4 12 12 30 -77 21 -103 -6 -16 -4
-31 7 -47 17 -26 19 -44 6 -44 -5 0 -24 26 -42 57 -18 31 -34 52 -37 45 -2 -6
6 -21 17 -33 34 -37 36 -59 7 -84 -14 -12 -26 -27 -26 -32 0 -10 27 -26 73
-43 15 -5 27 -15 27 -21 0 -7 -9 -9 -27 -4 -16 4 -34 8 -41 9 -18 1 -41 -66
-31 -91 16 -45 259 -113 399 -113 117 0 337 58 374 98 19 21 10 101 -12 109
-8 3 -28 -2 -44 -11 -33 -20 -48 -15 -28 9 8 10 32 15 69 16 46 1 51 3 26 9
-16 4 -22 8 -13 9 30 2 29 19 -2 37 -41 25 -42 35 -13 84 19 31 28 39 34 29 6
-10 9 -6 9 14 0 37 -12 28 -50 -39 -24 -41 -29 -58 -21 -68 6 -7 7 -17 3 -21
-4 -5 1 -5 10 -2 10 3 20 2 23 -3 4 -6 -7 -10 -24 -10 -20 0 -42 10 -63 30
-29 26 -31 32 -18 43 9 7 14 24 12 40 -3 23 0 27 22 27 23 0 26 4 25 33 0 29
-1 30 -9 10 -13 -32 -22 -29 -42 15 -10 20 -15 28 -11 17 11 -29 5 -125 -8
-141 -8 -10 -6 -20 10 -40 11 -14 18 -31 15 -36 -4 -6 -9 -6 -14 1 -5 9 -10 8
-20 -4 -11 -13 -9 -15 9 -15 23 0 29 -15 8 -23 -7 -3 -26 -3 -43 -1 -22 3 -25
2 -10 -4 19 -8 18 -9 -5 -15 -34 -10 -46 -8 -29 3 13 8 12 10 -2 10 -11 0 -18
-8 -18 -20 0 -13 -10 -24 -25 -30 -15 -6 -25 -17 -25 -29 0 -24 -28 -41 -67
-41 -26 1 -27 1 -9 15 28 21 13 43 -28 43 -46 0 -67 -23 -40 -43 18 -14 18
-14 -2 -15 -38 0 -84 21 -84 40 0 29 -1 30 -208 105 -43 15 -58 30 -41 41 7 4
14 3 17 -4 5 -15 58 -16 67 -2 5 8 11 7 21 -1 8 -7 14 -7 14 -1 0 15 -25 22
-41 11 -24 -15 -45 -10 -46 11 -2 17 2 20 18 15 15 -5 22 -1 26 14 7 27 21 27
33 -1 5 -13 9 -16 9 -8 0 8 -6 26 -13 39 -12 21 -14 22 -20 5 -6 -16 -8 -16
-21 4 -12 16 -13 26 -4 45 8 18 8 30 0 45 -6 11 -11 43 -11 71 l0 51 36 0 c19
0 33 4 29 9 -3 5 -19 9 -35 9 -19 -1 -36 6 -44 18 -8 10 -18 16 -22 11 -4 -4
1 -13 11 -21 12 -9 15 -15 7 -20 -7 -4 -12 -3 -12 2 0 5 -11 7 -25 4 -30 -5
-31 3 -10 71 13 43 13 52 0 77 -15 29 -6 48 16 35 6 -4 5 2 -3 14 -15 25 -28
27 -28 6z m744 -546 c-7 -11 -54 -12 -54 -1 0 15 10 19 35 14 14 -2 22 -8 19
-13z m-688 -105 c-4 -9 -9 -15 -11 -12 -3 3 -3 13 1 22 4 9 9 15 11 12 3 -3 3
-13 -1 -22z m34 -14 c-5 -9 -7 -20 -5 -24 3 -3 2 -4 -2 -1 -13 10 -9 53 4 48
9 -4 10 -10 3 -23z m660 21 c0 -5 3 -18 6 -28 5 -17 5 -17 -6 0 -16 24 -29 21
-24 -5 l5 -23 -13 23 c-9 19 -9 25 3 33 18 11 29 11 29 0z m-627 -31 c3 -11 1
-23 -4 -26 -5 -3 -9 6 -9 20 0 31 6 34 13 6z m575 -2 c15 -15 16 -32 2 -23 -5
3 -10 1 -10 -4 0 -6 -3 -11 -7 -11 -5 0 -8 11 -8 25 0 28 5 31 23 13z m-527
-20 c1 -17 2 -19 6 -5 5 18 38 23 48 7 3 -5 1 -10 -6 -10 -6 0 -9 -8 -6 -20 5
-19 4 -19 -27 -3 -17 10 -34 16 -37 15 -4 -1 -5 8 -2 18 7 27 23 25 24 -2z
m480 15 c0 -5 2 -16 4 -25 2 -10 -1 -18 -6 -18 -5 0 -9 4 -9 9 0 5 -3 16 -6
25 -3 9 -1 16 5 16 6 0 11 -3 12 -7z m-27 -53 c-7 -6 -24 22 -23 40 0 9 6 5
14 -10 7 -14 11 -27 9 -30z m-354 1 c0 -6 -4 -11 -10 -11 -5 0 -10 6 -10 13 0
8 -4 7 -11 -3 -9 -12 -10 -12 -5 3 3 10 6 23 6 29 0 5 7 3 15 -6 8 -8 15 -19
15 -25z m313 26 c3 -8 2 -19 -3 -26 -5 -9 -9 -4 -12 13 -5 27 6 36 15 13z
m-282 -40 c-8 -8 -11 -5 -11 9 0 27 14 41 18 19 2 -9 -1 -22 -7 -28z m242 23
c3 -11 1 -20 -4 -20 -5 0 -9 9 -9 20 0 11 2 20 4 20 2 0 6 -9 9 -20z m-189 -6
c8 -21 8 -24 -3 -24 -5 0 -11 9 -14 20 -6 24 8 27 17 4z m36 -5 c0 -12 5 -19
13 -16 6 2 11 11 9 21 -2 9 2 16 8 16 5 0 10 -6 11 -12 0 -10 2 -10 6 0 2 6
13 12 24 12 14 0 19 -7 18 -27 0 -25 -1 -26 -9 -8 l-9 20 -1 -20 c-1 -11 -4
-15 -6 -9 -4 9 -13 9 -34 1 -33 -12 -35 -11 -44 21 -5 13 -3 22 3 22 6 0 11
-9 11 -21z m130 5 c0 -8 -6 -11 -15 -8 -8 4 -15 9 -15 13 0 4 7 8 15 8 8 0 15
-6 15 -13z"/>
<path d="M1039 1004 c-8 -27 -2 -36 36 -52 28 -11 28 -11 11 3 -11 8 -23 15
-27 15 -4 0 -9 12 -11 28 -3 24 -4 25 -9 6z"/>
<path d="M1107 1013 c-13 -12 -7 -22 9 -16 14 5 16 1 12 -20 -4 -22 -3 -25 8
-16 11 9 16 7 21 -9 7 -17 10 -18 21 -6 11 12 10 14 -3 14 -9 0 -24 13 -33 30
-17 31 -24 35 -35 23z"/>
<path d="M240 975 c-7 -9 -11 -17 -9 -20 3 -2 10 5 17 15 14 24 10 26 -8 5z"/>
<path d="M1190 986 c0 -2 8 -10 18 -17 15 -13 16 -12 3 4 -13 16 -21 21 -21
13z"/>
<path d="M273 923 c-13 -19 -23 -40 -22 -46 0 -7 3 -5 7 3 4 8 15 28 26 43 10
15 17 29 15 31 -2 2 -14 -12 -26 -31z"/>
<path d="M440 956 c0 -2 7 -6 15 -10 8 -3 15 -1 15 4 0 6 -7 10 -15 10 -8 0
-15 -2 -15 -4z"/>
<path d="M976 952 c7 -4 14 -18 16 -32 3 -23 4 -22 9 8 5 27 3 32 -15 32 -13
0 -17 -3 -10 -8z"/>
<path d="M1108 934 c-3 -5 3 -34 13 -64 20 -64 24 -47 5 24 -7 27 -15 45 -18
40z"/>
<path d="M378 923 c12 -2 30 -2 40 0 9 3 -1 5 -23 4 -22 0 -30 -2 -17 -4z"/>
<path d="M1170 916 c0 -2 8 -10 18 -17 15 -13 16 -12 3 4 -13 16 -21 21 -21
13z"/>
<path d="M357 903 c-4 -3 -7 -11 -7 -17 0 -6 5 -5 12 2 6 6 9 14 7 17 -3 3 -9
2 -12 -2z"/>
<path d="M1024 891 c8 -9 16 -25 19 -36 3 -14 5 -12 6 9 1 28 2 29 16 10 14
-18 14 -18 9 2 -4 15 -16 23 -35 26 -26 4 -27 3 -15 -11z"/>
<path d="M385 889 c-4 -6 -5 -12 -2 -15 2 -3 7 2 10 11 7 17 1 20 -8 4z"/>
<path d="M990 840 l-2 -35 -8 30 -8 30 -1 -36 c-1 -36 0 -37 37 -35 35 1 37 0
35 -29 -2 -25 -1 -26 6 -10 8 19 9 18 13 -5 4 -19 5 -17 4 7 -2 26 3 33 22 38
13 3 30 1 38 -6 11 -9 14 -8 14 4 0 16 -47 30 -55 16 -3 -4 -18 -4 -33 0 -15
4 -32 6 -39 4 -7 -3 -13 9 -16 29 l-4 33 -3 -35z"/>
<path d="M240 851 c0 -5 7 -14 15 -21 12 -10 15 -10 15 3 0 8 -7 17 -15 21 -8
3 -15 2 -15 -3z"/>
<path d="M1070 835 c-8 -9 -8 -15 -2 -15 12 0 26 19 19 26 -2 2 -10 -2 -17
-11z"/>
<path d="M200 831 c0 -5 8 -12 18 -15 10 -4 29 -24 41 -46 12 -22 25 -40 27
-40 3 0 -7 22 -23 49 -15 27 -31 47 -35 45 -4 -3 -8 0 -8 5 0 6 -4 11 -10 11
-5 0 -10 -4 -10 -9z"/>
<path d="M1183 823 c-3 -10 -8 -22 -10 -28 -3 -5 5 1 17 15 21 25 22 25 17 3
-6 -27 5 -30 24 -6 8 9 9 14 3 10 -7 -4 -14 0 -18 8 -7 20 -25 19 -33 -2z"/>
<path d="M280 790 c6 -11 13 -20 16 -20 2 0 0 9 -6 20 -6 11 -13 20 -16 20 -2
0 0 -9 6 -20z"/>
<path d="M317 753 c-4 -7 9 -38 28 -70 19 -32 35 -50 35 -41 0 9 -7 24 -15 32
-9 8 -22 32 -29 53 -7 21 -16 32 -19 26z"/>
<path d="M1112 708 l-12 -33 20 25 c21 27 25 40 12 40 -4 0 -13 -15 -20 -32z"/>
<path d="M305 690 c9 -16 18 -30 21 -30 2 0 -2 14 -11 30 -9 17 -18 30 -21 30
-2 0 2 -13 11 -30z"/>
<path d="M440 669 c0 -13 5 -31 10 -39 7 -11 8 -5 4 20 -8 43 -14 51 -14 19z"/>
<path d="M1062 646 c-6 -22 -10 -42 -9 -43 1 -1 12 13 23 30 16 25 18 35 9 43
-9 9 -14 1 -23 -30z"/>
<path d="M331 605 c0 -5 6 -21 14 -35 8 -14 14 -20 14 -15 0 6 -6 21 -14 35
-8 14 -14 21 -14 15z"/>
<path d="M1026 574 c-5 -14 -4 -15 9 -4 17 14 19 20 6 20 -5 0 -12 -7 -15 -16z"/>
<path d="M876 475 c4 -8 10 -12 15 -9 11 6 2 24 -11 24 -5 0 -7 -7 -4 -15z"/>
<path d="M251 445 c-18 -8 -42 -15 -52 -15 -10 0 -21 -5 -24 -11 -15 -24 9
-21 68 9 63 32 69 43 8 17z"/>
<path d="M1198 425 c50 -23 94 -33 79 -19 -8 8 -107 43 -122 44 -5 0 14 -11
43 -25z"/>
<path d="M283 413 c-7 -2 -13 -10 -13 -17 0 -17 -33 -46 -52 -46 -9 0 -18 -7
-22 -15 -3 -10 1 -15 13 -15 10 0 24 7 31 15 7 8 20 15 29 15 13 0 13 2 2 9
-11 7 -8 13 13 26 36 24 35 43 -1 28z"/>
<path d="M1160 405 c0 -6 7 -19 15 -29 8 -10 12 -23 9 -27 -3 -5 1 -9 9 -9 8
0 20 -7 27 -15 7 -8 16 -15 21 -15 5 0 9 7 9 15 0 8 -8 15 -18 15 -11 0 -31
17 -45 37 -15 21 -27 33 -27 28z"/>
<path d="M1148 353 c7 -3 16 -2 19 1 4 3 -2 6 -13 5 -11 0 -14 -3 -6 -6z"/>
</g>
</svg>
